<?xml version="1.0" encoding="UTF-8" standalone="no"?>
<!DOCTYPE svg PUBLIC "-//W3C//DTD SVG 1.1//EN" "http://www.w3.org/Graphics/SVG/1.1/DTD/svg11.dtd">
<svg version="1.1" xmlns="http://www.w3.org/2000/svg" xmlns:xlink="http://www.w3.org/1999/xlink" preserveAspectRatio="xMidYMid meet" viewBox="0 0 1000 1000" width="1000" height="1000"><defs><path d="M975 500C975 762.16 762.16 975 500 975C237.84 975 25 762.16 25 500C25 237.84 237.84 25 500 25C762.16 25 975 237.84 975 500Z" id="cdXrY5X1X"></path><path d="M940 500C940 742.84 742.84 940 500 940C257.15 940 60 742.84 60 500C60 257.16 257.15 60 500 60C742.84 60 940 257.16 940 500Z" id="bD9lYwiKH"></path><path d="M501.71 626.96C600.11 722.75 661.61 782.63 686.21 806.57C689.95 810.22 696.09 806.53 694.64 801.51C655.71 667.21 544.66 284.06 505.82 150.08C504.07 144.03 495.53 143.9 493.6 149.91C450.22 284.86 326.34 670.19 282.92 805.23C281.17 810.69 287.72 814.99 292.02 811.2C319.98 786.64 389.88 725.22 501.71 626.96Z" id="aDTIkogy"></path></defs><g><g><g><use xlink:href="#cdXrY5X1X" opacity="1" fill="#ffffff" fill-opacity="1"></use><g><use xlink:href="#cdXrY5X1X" opacity="1" fill-opacity="0" stroke="#000000" stroke-width="20" stroke-opacity="1"></use></g></g><g><g><use xlink:href="#bD9lYwiKH" opacity="1" fill-opacity="0" stroke="#000000" stroke-width="20" stroke-opacity="1"></use></g></g><g><use xlink:href="#aDTIkogy" opacity="1" fill="#8fa9f9" fill-opacity="1"></use><g><use xlink:href="#aDTIkogy" opacity="1" fill-opacity="0" stroke="#000000" stroke-width="20" stroke-opacity="1"></use></g></g></g></g></svg>